HIERARCHY
ROOT Root
{
  OFFSET 0.0 0.0 0.0
  CHANNELS 6 Xposition Yposition Zposition Zrotation Yrotation Xrotation
  JOINT Hips
  {
    OFFSET 0.0 100.0 0.0
    CHANNELS 6 Xposition Yposition Zposition Zrotation Yrotation Xrotation
    JOINT Spine1
    {
      OFFSET 5.003913 -0.037094 -0.013727
      CHANNELS 3 Zrotation Yrotation Xrotation
      JOINT Spine2
      {
        OFFSET 7.125363 -1e-06 0.0
        CHANNELS 3 Zrotation Yrotation Xrotation
        JOINT Chest
        {
          OFFSET 7.594027 1e-06 0.0
          CHANNELS 3 Zrotation Yrotation Xrotation
          JOINT Neck1
          {
            OFFSET 26.313086 -0.460272 -0.181672
            CHANNELS 3 Zrotation Yrotation Xrotation
            JOINT Neck2
            {
              OFFSET 8.045911 0.0 0.0
              CHANNELS 3 Zrotation Yrotation Xrotation
              JOINT Head
              {
                OFFSET 6.432774 0.0 0.0
                CHANNELS 3 Zrotation Yrotation Xrotation
                JOINT HeadEnd
                {
                  OFFSET 16.169773 0.06451 0.00362
                  CHANNELS 3 Zrotation Yrotation Xrotation
                }
                JOINT Jaw
                {
                  OFFSET 0.108741 3.12938 0.002639
                  CHANNELS 3 Zrotation Yrotation Xrotation
                }
                JOINT LeftEye
                {
                  OFFSET 4.45173 8.166359 3.206392
                  CHANNELS 3 Zrotation Yrotation Xrotation
                }
                JOINT RightEye
                {
                  OFFSET 4.436895 8.135758 -3.222429
                  CHANNELS 3 Zrotation Yrotation Xrotation
                }
              }
            }
          }
          JOINT LeftShoulder
          {
            OFFSET 23.218927 5.195579 1.621656
            CHANNELS 3 Zrotation Yrotation Xrotation
            JOINT LeftArm
            {
              OFFSET 15.902118 2e-06 -2e-06
              CHANNELS 3 Zrotation Yrotation Xrotation
              JOINT LeftForeArm
              {
                OFFSET 28.739307 0.0 -1e-06
                CHANNELS 3 Zrotation Yrotation Xrotation
                JOINT LeftHand
                {
                  OFFSET 27.093981 -4e-06 0.0
                  CHANNELS 3 Zrotation Yrotation Xrotation
                  JOINT LeftHandThumb1
                  {
                    OFFSET 2.276781 3.380274 0.83384
                    CHANNELS 3 Zrotation Yrotation Xrotation
                    JOINT LeftHandThumb2
                    {
                      OFFSET 4.705309 -1e-06 -1e-06
                      CHANNELS 3 Zrotation Yrotation Xrotation
                      JOINT LeftHandThumb3
                      {
                        OFFSET 2.798515 0.0 3e-06
                        CHANNELS 3 Zrotation Yrotation Xrotation
                        JOINT LeftHandThumbEnd
                        {
                          OFFSET 3.180793 4e-06 -4e-06
                          CHANNELS 3 Zrotation Yrotation Xrotation
                        }
                      }
                    }
                  }
                  JOINT LeftHandIndex1
                  {
                    OFFSET 3.247786 2.352677 0.137192
                    CHANNELS 3 Zrotation Yrotation Xrotation
                    JOINT LeftHandIndex2
                    {
                      OFFSET 6.367095 1e-06 0.0
                      CHANNELS 3 Zrotation Yrotation Xrotation
                      JOINT LeftHandIndex3
                      {
                        OFFSET 3.662364 0.0 0.0
                        CHANNELS 3 Zrotation Yrotation Xrotation
                        JOINT LeftHandIndex4
                        {
                          OFFSET 2.329242 4e-06 -4e-06
                          CHANNELS 3 Zrotation Yrotation Xrotation
                          JOINT LeftHandIndexEnd
                          {
                            OFFSET 2.767823 1e-06 0.0
                            CHANNELS 3 Zrotation Yrotation Xrotation
                          }
                        }
                      }
                    }
                  }
                  JOINT LeftHandMiddle1
                  {
                    OFFSET 3.163612 0.945023 -0.406112
                    CHANNELS 3 Zrotation Yrotation Xrotation
                    JOINT LeftHandMiddle2
                    {
                      OFFSET 6.276789 3e-06 0.0
                      CHANNELS 3 Zrotation Yrotation Xrotation
                      JOINT LeftHandMiddle3
                      {
                        OFFSET 4.35652 -1e-06 4e-06
                        CHANNELS 3 Zrotation Yrotation Xrotation
                        JOINT LeftHandMiddle4
                        {
                          OFFSET 2.996877 0.0 8e-06
                          CHANNELS 3 Zrotation Yrotation Xrotation
                          JOINT LeftHandMiddleEnd
                          {
                            OFFSET 2.323256 3e-06 -4e-06
                            CHANNELS 3 Zrotation Yrotation Xrotation
                          }
                        }
                      }
                    }
                  }
                  JOINT LeftHandRing1
                  {
                    OFFSET 2.882606 -0.309162 0.107445
                    CHANNELS 3 Zrotation Yrotation Xrotation
                    JOINT LeftHandRing2
                    {
                      OFFSET 6.033198 0.0 4e-06
                      CHANNELS 3 Zrotation Yrotation Xrotation
                      JOINT LeftHandRing3
                      {
                        OFFSET 4.350578 3e-06 0.0
                        CHANNELS 3 Zrotation Yrotation Xrotation
                        JOINT LeftHandRing4
                        {
                          OFFSET 2.651321 2e-06 -7e-06
                          CHANNELS 3 Zrotation Yrotation Xrotation
                          JOINT LeftHandRingEnd
                          {
                            OFFSET 1.937663 1e-06 -4e-06
                            CHANNELS 3 Zrotation Yrotation Xrotation
                          }
                        }
                      }
                    }
                  }
                  JOINT LeftHandPinky1
                  {
                    OFFSET 2.865315 -1.525436 0.575687
                    CHANNELS 3 Zrotation Yrotation Xrotation
                    JOINT LeftHandPinky2
                    {
                      OFFSET 5.54936 1e-06 -8e-06
                      CHANNELS 3 Zrotation Yrotation Xrotation
                      JOINT LeftHandPinky3
                      {
                        OFFSET 3.070974 0.0 -4e-06
                        CHANNELS 3 Zrotation Yrotation Xrotation
                        JOINT LeftHandPinky4
                        {
                          OFFSET 1.549672 1e-06 0.0
                          CHANNELS 3 Zrotation Yrotation Xrotation
                          JOINT LeftHandPinkyEnd
                          {
                            OFFSET 1.952123 0.0 0.0
                            CHANNELS 3 Zrotation Yrotation Xrotation
                          }
                        }
                      }
                    }
                  }
                }
              }
            }
          }
          JOINT RightShoulder
          {
            OFFSET 23.161716 5.296122 -1.380114
            CHANNELS 3 Zrotation Yrotation Xrotation
            JOINT RightArm
            {
              OFFSET -16.027195 -2e-06 1.1e-05
              CHANNELS 3 Zrotation Yrotation Xrotation
              JOINT RightForeArm
              {
                OFFSET -28.736639 4e-06 2e-06
                CHANNELS 3 Zrotation Yrotation Xrotation
                JOINT RightHand
                {
                  OFFSET -27.133619 6e-06 0.0
                  CHANNELS 3 Zrotation Yrotation Xrotation
                  JOINT RightHandThumb1
                  {
                    OFFSET -2.274328 -3.351035 -0.83067
                    CHANNELS 3 Zrotation Yrotation Xrotation
                    JOINT RightHandThumb2
                    {
                      OFFSET -4.703594 -3e-06 2e-06
                      CHANNELS 3 Zrotation Yrotation Xrotation
                      JOINT RightHandThumb3
                      {
                        OFFSET -2.794935 -4e-06 -3e-06
                        CHANNELS 3 Zrotation Yrotation Xrotation
                        JOINT RightHandThumbEnd
                        {
                          OFFSET -3.183852 4e-06 1e-06
                          CHANNELS 3 Zrotation Yrotation Xrotation
                        }
                      }
                    }
                  }
                  JOINT RightHandIndex1
                  {
                    OFFSET -3.253496 -2.33755 -0.127667
                    CHANNELS 3 Zrotation Yrotation Xrotation
                    JOINT RightHandIndex2
                    {
                      OFFSET -6.344434 0.0 0.0
                      CHANNELS 3 Zrotation Yrotation Xrotation
                      JOINT RightHandIndex3
                      {
                        OFFSET -3.654871 0.0 -8e-06
                        CHANNELS 3 Zrotation Yrotation Xrotation
                        JOINT RightHandIndex4
                        {
                          OFFSET -2.327586 -1e-06 0.0
                          CHANNELS 3 Zrotation Yrotation Xrotation
                          JOINT RightHandIndexEnd
                          {
                            OFFSET -2.770001 3e-06 8e-06
                            CHANNELS 3 Zrotation Yrotation Xrotation
                          }
                        }
                      }
                    }
                  }
                  JOINT RightHandMiddle1
                  {
                    OFFSET -3.168223 -0.944764 0.411762
                    CHANNELS 3 Zrotation Yrotation Xrotation
                    JOINT RightHandMiddle2
                    {
                      OFFSET -6.266691 -1e-06 -4e-06
                      CHANNELS 3 Zrotation Yrotation Xrotation
                      JOINT RightHandMiddle3
                      {
                        OFFSET -4.348901 0.0 0.0
                        CHANNELS 3 Zrotation Yrotation Xrotation
                        JOINT RightHandMiddle4
                        {
                          OFFSET -3.00024 2e-06 -4e-06
                          CHANNELS 3 Zrotation Yrotation Xrotation
                          JOINT RightHandMiddleEnd
                          {
                            OFFSET -2.321477 -4e-06 -4e-06
                            CHANNELS 3 Zrotation Yrotation Xrotation
                          }
                        }
                      }
                    }
                  }
                  JOINT RightHandRing1
                  {
                    OFFSET -2.885654 0.293261 -0.119232
                    CHANNELS 3 Zrotation Yrotation Xrotation
                    JOINT RightHandRing2
                    {
                      OFFSET -6.032835 -1e-06 -4e-06
                      CHANNELS 3 Zrotation Yrotation Xrotation
                      JOINT RightHandRing3
                      {
                        OFFSET -4.33881 0.0 -4e-06
                        CHANNELS 3 Zrotation Yrotation Xrotation
                        JOINT RightHandRing4
                        {
                          OFFSET -2.654903 -4e-06 -4e-06
                          CHANNELS 3 Zrotation Yrotation Xrotation
                          JOINT RightHandRingEnd
                          {
                            OFFSET -1.935122 0.0 4e-06
                            CHANNELS 3 Zrotation Yrotation Xrotation
                          }
                        }
                      }
                    }
                  }
                  JOINT RightHandPinky1
                  {
                    OFFSET -2.866241 1.503904 -0.60527
                    CHANNELS 3 Zrotation Yrotation Xrotation
                    JOINT RightHandPinky2
                    {
                      OFFSET -5.553177 -2e-06 0.0
                      CHANNELS 3 Zrotation Yrotation Xrotation
                      JOINT RightHandPinky3
                      {
                        OFFSET -3.062664 -1e-06 -4e-06
                        CHANNELS 3 Zrotation Yrotation Xrotation
                        JOINT RightHandPinky4
                        {
                          OFFSET -1.546529 2e-06 4e-06
                          CHANNELS 3 Zrotation Yrotation Xrotation
                          JOINT RightHandPinkyEnd
                          {
                            OFFSET -1.952341 0.0 -4e-06
                            CHANNELS 3 Zrotation Yrotation Xrotation
                          }
                        }
                      }
                    }
                  }
                }
              }
            }
          }
        }
      }
    }
    JOINT LeftLeg
    {
      OFFSET -8.443107 2.567604 10.043214
      CHANNELS 3 Zrotation Yrotation Xrotation
      JOINT LeftShin
      {
        OFFSET 43.229198 1e-06 -1e-06
        CHANNELS 3 Zrotation Yrotation Xrotation
        JOINT LeftFoot
        {
          OFFSET 42.298611 1e-06 1e-06
          CHANNELS 3 Zrotation Yrotation Xrotation
          JOINT LeftToeBase
          {
            OFFSET 14.165858 1e-06 0.0
            CHANNELS 3 Zrotation Yrotation Xrotation
            JOINT LeftToeEnd
            {
              OFFSET 6.7141 -0.234461 0.0
              CHANNELS 3 Zrotation Yrotation Xrotation
            }
          }
        }
      }
    }
    JOINT RightLeg
    {
      OFFSET -8.303923 2.592729 -10.047278
      CHANNELS 3 Zrotation Yrotation Xrotation
      JOINT RightShin
      {
        OFFSET -43.369682 0.0 1e-06
        CHANNELS 3 Zrotation Yrotation Xrotation
        JOINT RightFoot
        {
          OFFSET -42.260784 4e-06 2e-06
          CHANNELS 3 Zrotation Yrotation Xrotation
          JOINT RightToeBase
          {
            OFFSET -14.222245 -2e-06 -1e-06
            CHANNELS 3 Zrotation Yrotation Xrotation
            JOINT RightToeEnd
            {
              OFFSET -6.660062 0.232574 -2e-06
              CHANNELS 3 Zrotation Yrotation Xrotation
            }
          }
        }
      }
    }
  }
}
MOTION
Frames: 5
Frame Time: 0.03333333333333333
0.0 0.0 0.0 0.0 -0.0 0.0 -4.807374 90.438057 0.973042 89.9291 -21.589256 89.323395 16.664618 -1.985634 -0.928579 -1.27774 -2.019257 -0.736742 29.742134 -3.770416 -5.617074 2.718215 7.212447 1.585496 -2.724493 0.653389 1.370378 -45.01688 8.184836 -6.261106 6e-06 -0.0 0.0 -0.013527 0.014209 -0.037498 0.217174 0.047715 0.026535 0.195847 -0.017954 -0.097727 -49.935154 -85.660583 60.049904 46.804932 -57.780415 -74.385612 114.60025 0.72246 0.551019 23.13711 32.990784 61.366226 17.636637 -26.322737 52.411179 -19.466658 -14.3956 29.410385 -1e-06 -8.774822 -2e-06 17.100687 -18.238836 5.433232 -0.609779 -1.795653 -3.889328 -4.807087 -11.046811 -2.937847 4e-06 -20.976019 3e-06 -5.019977 -25.03356 -4.031872 6e-06 -1e-06 2e-06 -10.634531 -5.686969 -3.565586 10.573274 -17.922951 -3.113899 2e-06 -13.821211 3e-06 -0.501783 -31.181507 -4.027009 -11.626549 -58.816113 6.961538 -13.982712 -7.150197 -2.87504 13.77273 -8.401492 -3.218241 0.347731 -34.211555 0.771659 -0.96303 -17.73337 2.621019 1e-06 -2e-06 0.0 -17.346418 -20.095215 -4.201777 21.757563 -1.638376 3.866426 0.0 -6.338824 1e-06 -1.697591 -22.591745 -6.194003 -1e-06 -3e-06 -2e-06 122.810997 -81.770592 67.883041 39.676834 -69.157349 -50.063923 118.196579 0.306076 1.326545 7.739964 37.82605 37.680264 22.18211 -20.375887 49.933308 -16.701815 -16.74353 28.476528 -3e-06 -12.690601 -1e-06 17.00786 -17.423344 2.153824 -0.105919 -1.513856 -4.275882 -5.039039 -5.612871 -2.953556 4e-06 -11.020523 -3e-06 -6.1113 -15.895334 -3.840471 -1e-06 -2e-06 -0.0 -10.283371 -5.680287 -4.341838 11.028296 -11.302404 -2.372633 -1.384268 -14.238581 -6.32012 -0.62544 -26.924191 -3.8276 -4.069361 -49.795334 -3.952506 -13.708526 -7.363476 -3.720938 18.141148 -14.052737 -3.242674 7e-06 -18.787268 -2e-06 -0.429712 -8.456043 2.555503 1e-06 2e-06 -1e-06 -15.923536 -20.094482 -5.473584 30.41921 -7.190823 1.735924 3e-06 -8.162927 -0.0 -1.861903 -22.861467 -6.167941 -1e-06 -3e-06 -1e-06 121.488045 -8.758879 0.811609 53.291126 -0.207281 0.740305 -85.420784 3.548598 -7.849611 -7.264913 1.567144 2.12574 -0.999999 0.0 0.0 -57.934628 -9.483737 -10.218307 54.858524 0.145975 0.030445 -86.529327 6.450651 -2.436388 -6.607707 0.763219 1.67981 -1.000002 0.0 0.0 
0.0 0.0 0.0 0.0 -0.0 0.0 -4.86614 90.462646 1.057929 89.854141 -21.651495 89.324989 16.717041 -1.954415 -0.949267 -1.290875 -2.075396 -0.717733 29.697926 -3.79211 -5.674577 2.749255 7.151298 1.514872 -2.732475 0.691866 1.298157 -44.879414 8.244433 -6.357174 5e-06 0.0 -0.0 -0.028127 -0.000167 -0.017779 0.21251 0.031821 0.041114 0.201458 -0.031116 -0.075439 -49.036022 -85.80381 59.14838 46.205452 -57.744141 -74.4814 114.933838 0.589981 0.481787 22.943647 32.809483 60.950443 17.636637 -26.322746 52.411213 -19.466665 -14.3956 29.410402 -1e-06 -8.774824 -2e-06 16.977448 -18.133839 5.571836 -0.609774 -1.795655 -3.889328 -4.807091 -11.046815 -2.937851 3e-06 -20.976025 -1e-06 -5.019974 -25.033566 -4.031881 7e-06 -0.0 -0.0 -10.634537 -5.686973 -3.565588 10.57328 -17.922958 -3.113903 -0.0 -13.821213 0.0 -0.501779 -31.181522 -4.027017 -11.710577 -59.11586 7.259144 -13.982719 -7.150201 -2.875042 13.772735 -8.401495 -3.218242 0.347732 -34.211559 0.771657 -0.963028 -17.733376 2.62102 -1e-06 -1e-06 -1e-06 -17.346422 -20.095224 -4.201784 21.757568 -1.638376 3.866428 -0.0 -6.338826 1e-06 -1.697591 -22.591753 -6.194006 0.0 -3e-06 -2e-06 121.72699 -81.768753 68.933029 39.11208 -68.968658 -49.498276 118.190468 0.390099 1.354158 7.416471 37.542126 37.29652 22.182112 -20.375898 49.933323 -16.701813 -16.74353 28.476532 -1e-06 -12.6906 2e-06 17.142933 -17.422188 2.089935 -0.105922 -1.513856 -4.275882 -5.039041 -5.612872 -2.953557 4e-06 -11.020525 -2e-06 -6.1113 -15.895338 -3.84047 -1e-06 0.0 1e-06 -10.283379 -5.68029 -4.341839 11.028296 -11.302406 -2.372634 -1.384269 -14.238583 -6.320122 -0.625439 -26.924194 -3.827601 -4.000848 -49.922367 -3.914129 -13.708526 -7.363477 -3.720938 18.141153 -14.052739 -3.242677 8e-06 -18.787271 -3e-06 -0.429715 -8.456048 2.555504 0.0 3e-06 -1e-06 -15.923538 -20.094484 -5.473582 30.419218 -7.190823 1.735923 1e-06 -8.162929 1e-06 -1.861905 -22.861473 -6.167942 -0.0 -4e-06 0.0 121.493675 -8.909866 0.811104 53.251343 -0.187208 0.737027 -85.52269 3.595335 -7.756018 -7.215375 1.579244 2.126311 -0.999999 -0.0 0.0 -57.897171 -9.354361 -10.27715 54.80006 0.131258 0.012875 -86.569679 6.488975 -2.506976 -6.638533 0.753515 1.686467 -1.000002 -1e-06 -0.0 
0.0 0.0 0.0 0.0 -0.0 0.0 -4.894401 90.459457 1.085445 89.85984 -21.730442 89.268623 16.746975 -1.967969 -0.976334 -1.304819 -2.104979 -0.714244 29.669331 -3.861828 -5.749958 2.792276 7.043644 1.454894 -2.758111 0.741417 1.286503 -44.925892 8.258739 -6.366863 6e-06 -0.0 -0.0 -0.031328 -0.010782 0.006927 0.204876 0.016533 0.062106 0.20528 -0.03766 -0.049304 -48.108322 -85.910263 58.195377 45.505772 -57.746964 -74.321518 115.201561 0.526062 0.333204 22.938595 32.769951 60.593067 17.636635 -26.322721 52.41119 -19.466656 -14.395589 29.410389 -0.0 -8.774819 -2e-06 16.928768 -18.084044 5.639816 -0.609778 -1.795654 -3.889325 -4.807087 -11.046809 -2.937852 5e-06 -20.976015 -4e-06 -5.01997 -25.033556 -4.031883 8e-06 -0.0 1e-06 -10.634532 -5.686972 -3.565589 10.573272 -17.922947 -3.113901 2e-06 -13.821205 -1e-06 -0.501774 -31.181498 -4.02702 -11.776686 -59.29829 7.40001 -13.982712 -7.150198 -2.875044 13.772726 -8.401491 -3.218242 0.347735 -34.211544 0.77165 -0.963025 -17.733366 2.621015 -1e-06 -2e-06 1e-06 -17.346415 -20.095217 -4.201784 21.757557 -1.638375 3.86643 2e-06 -6.338823 0.0 -1.697588 -22.591747 -6.194009 -0.0 -2e-06 -1e-06 121.520348 -81.77211 69.09259 38.789486 -68.773468 -49.058708 118.133858 0.558368 1.257337 7.316839 37.345062 37.333237 22.18211 -20.375891 49.933319 -16.701817 -16.74353 28.476532 -3e-06 -12.690601 2e-06 17.269943 -17.399103 2.047184 -0.105919 -1.513856 -4.275882 -5.039042 -5.612872 -2.953556 5e-06 -11.020523 -3e-06 -6.111296 -15.895338 -3.840471 -1e-06 -1e-06 1e-06 -10.283367 -5.680288 -4.341839 11.02829 -11.302404 -2.372635 -1.384268 -14.238578 -6.320121 -0.625435 -26.924189 -3.8276 -3.961982 -49.973011 -3.900811 -13.708523 -7.363475 -3.720939 18.141151 -14.052741 -3.242678 9e-06 -18.787268 -3e-06 -0.429711 -8.456046 2.555504 0.0 3e-06 -2e-06 -15.923536 -20.094482 -5.473585 30.419214 -7.190827 1.735923 2e-06 -8.162929 -1e-06 -1.8619 -22.861467 -6.167942 0.0 -3e-06 -1e-06 121.442459 -9.001799 0.755806 53.239811 -0.167472 0.72369 -85.561356 3.547672 -7.696122 -7.134635 1.588842 2.133497 -1.0 -0.0 0.0 -57.977726 -9.29615 -10.268563 54.807896 0.127032 0.005716 -86.579773 6.592319 -2.542114 -6.603097 0.746298 1.688439 -1.000002 -0.0 0.0 
0.0 0.0 0.0 0.0 -0.0 0.0 -4.888232 90.460548 1.076566 89.890182 -21.81208 89.190994 16.758337 -1.998655 -0.996075 -1.309819 -2.113674 -0.718632 29.63673 -3.928961 -5.823791 2.813398 6.890136 1.430127 -2.781005 0.785694 1.298662 -45.071014 8.258348 -6.340158 5e-06 -0.0 -0.0 -0.033568 -0.014015 0.021049 0.192781 0.009227 0.072662 0.198825 -0.037172 -0.03293 -47.624802 -85.971291 57.696533 44.921791 -57.763115 -74.082634 115.408684 0.522965 0.215629 23.117149 32.748955 60.626446 17.636627 -26.322735 52.411205 -19.466663 -14.395598 29.410395 0.0 -8.774821 -1e-06 16.877529 -18.068138 5.676698 -0.609777 -1.795654 -3.889328 -4.80709 -11.046813 -2.93785 3e-06 -20.976019 -0.0 -5.019972 -25.03356 -4.03188 6e-06 -1e-06 1e-06 -10.634535 -5.686974 -3.565588 10.573275 -17.922955 -3.113902 0.0 -13.821211 1e-06 -0.501779 -31.181511 -4.027018 -11.802435 -59.409142 7.453722 -13.982716 -7.1502 -2.875042 13.772727 -8.401493 -3.218242 0.34773 -34.211555 0.771655 -0.963028 -17.733372 2.621017 -1e-06 -1e-06 1e-06 -17.346424 -20.095224 -4.20178 21.757566 -1.638374 3.866429 1e-06 -6.338824 0.0 -1.697591 -22.591751 -6.194009 -1e-06 -2e-06 -2e-06 121.941566 -81.776337 68.634659 38.679092 -68.594261 -48.879383 118.121101 0.702753 1.188221 7.261824 37.281731 37.596954 22.182117 -20.3759 49.933323 -16.701813 -16.74353 28.476532 -2e-06 -12.6906 -0.0 17.332308 -17.399918 2.034514 -0.105919 -1.513855 -4.275882 -5.039039 -5.612871 -2.953557 4e-06 -11.020523 -2e-06 -6.111295 -15.895332 -3.84047 -0.0 -1e-06 -0.0 -10.283371 -5.680288 -4.341842 11.02829 -11.302406 -2.372632 -1.384268 -14.238582 -6.320122 -0.625437 -26.924191 -3.827601 -3.943653 -50.023659 -3.883405 -13.708525 -7.363476 -3.720942 18.141148 -14.052739 -3.242674 6e-06 -18.78727 -0.0 -0.429714 -8.456047 2.555505 0.0 2e-06 -1e-06 -15.923536 -20.094482 -5.473587 30.41921 -7.190827 1.735925 2e-06 -8.162927 -0.0 -1.861903 -22.861467 -6.167943 -0.0 -2e-06 1e-06 121.391083 -9.053464 0.677505 53.188576 -0.152941 0.704285 -85.649498 3.499137 -7.674652 -7.041934 1.589057 2.138751 -0.999998 -0.0 0.0 -58.084747 -9.247272 -10.189665 54.784359 0.127913 -0.006494 -86.542313 6.66044 -2.55041 -6.563354 0.747669 1.69009 -1.000001 0.0 0.0 
0.0 0.0 0.0 0.0 -0.0 0.0 -4.853052 90.468239 1.054222 89.92794 -21.903006 89.119011 16.758915 -2.031607 -1.004942 -1.302593 -2.113383 -0.727971 29.600159 -3.983932 -5.907719 2.797461 6.735435 1.439256 -2.791084 0.819426 1.324115 -45.232243 8.256744 -6.300604 5e-06 -0.0 -0.0 -0.032188 -0.014157 0.026611 0.185528 0.006063 0.076762 0.192993 -0.034517 -0.02628 -47.552238 -85.997528 57.597324 44.472576 -57.785019 -73.932304 115.570259 0.502404 0.148453 23.28652 32.749233 60.806259 17.636629 -26.322733 52.411201 -19.466658 -14.395596 29.410393 -0.0 -8.774819 -2e-06 16.813797 -18.079248 5.720979 -0.609777 -1.795654 -3.889327 -4.80709 -11.046809 -2.93785 4e-06 -20.976017 1e-06 -5.019969 -25.033556 -4.031882 7e-06 -0.0 1e-06 -10.634537 -5.68697 -3.565589 10.573277 -17.922947 -3.113901 2e-06 -13.821206 1e-06 -0.501777 -31.181501 -4.027015 -11.81707 -59.494282 7.510431 -13.982715 -7.150197 -2.875043 13.77273 -8.401491 -3.218242 0.347731 -34.211544 0.771657 -0.963029 -17.733366 2.62102 -1e-06 -1e-06 -1e-06 -17.346422 -20.095219 -4.201784 21.757559 -1.638375 3.866428 0.0 -6.338824 1e-06 -1.697588 -22.591743 -6.194006 -0.0 -2e-06 -1e-06 122.604004 -81.778702 67.908211 38.612499 -68.463943 -48.835609 118.143135 0.778726 1.14803 7.207131 37.256649 37.883949 22.182117 -20.375896 49.933323 -16.701818 -16.743532 28.476538 -3e-06 -12.690602 0.0 17.371906 -17.432695 2.026775 -0.10592 -1.513856 -4.275883 -5.039042 -5.612873 -2.953557 5e-06 -11.020527 -2e-06 -6.111298 -15.895336 -3.84047 -2e-06 -0.0 1e-06 -10.283371 -5.680288 -4.341839 11.028293 -11.302407 -2.372635 -1.38427 -14.238585 -6.320124 -0.625438 -26.9242 -3.827602 -3.927024 -50.087048 -3.884108 -13.708524 -7.363478 -3.720939 18.14115 -14.052742 -3.242677 8e-06 -18.787271 -3e-06 -0.42971 -8.456045 2.555504 0.0 2e-06 -1e-06 -15.923539 -20.094492 -5.473586 30.419222 -7.190827 1.735925 2e-06 -8.162929 -0.0 -1.861901 -22.861475 -6.167943 -1e-06 -2e-06 -0.0 121.329651 -9.082244 0.559264 53.119953 -0.145694 0.685715 -85.610359 3.512372 -7.627314 -6.924882 1.58444 2.142845 -0.999998 -0.0 0.0 -58.200199 -9.221526 -10.086164 54.732948 0.133286 -0.022847 -86.478851 6.69863 -2.574715 -6.504219 0.751548 1.692451 -1.000001 1e-06 0.0 
